<svg xmlns="http://www.w3.org/2000/svg" version="1.1" xmlns:xlink="http://www.w3.org/1999/xlink" xmlns:svgjs="http://svgjs.dev/svgjs" width="1440" height="560" preserveAspectRatio="none" viewBox="0 0 1440 560"><g clip-path="url(&quot;#SvgjsClipPath1005&quot;)" fill="none"><circle r="93.335" cx="-38.94" cy="-42.7" stroke="#365aa3" stroke-opacity="0.25" stroke-width="2"></circle><circle r="93.335" cx="380.25" cy="425.41" stroke="#365aa3" stroke-opacity="0.25" stroke-width="2"></circle><circle r="93.335" cx="804.47" cy="688.67" stroke="#365aa3" stroke-opacity="0.25" stroke-width="2"></circle><circle r="172.44" cx="967.39" cy="172.9" stroke="#365aa3" stroke-opacity="0.25" stroke-width="2"></circle><circle r="162.575" cx="528.06" cy="196" stroke="#365aa3" stroke-opacity="0.25" stroke-width="2"></circle><circle r="185.085" cx="454.93" cy="456.42" stroke="#365aa3" stroke-opacity="0.25" stroke-width="2"></circle><circle r="65.31" cx="1005.29" cy="401.53" stroke="#365aa3" stroke-opacity="0.25" stroke-width="2"></circle><circle r="102.69" cx="1419.81" cy="280.97" stroke="#365aa3" stroke-opacity="0.25" stroke-width="2"></circle><circle r="66.63" cx="1118.68" cy="321.81" stroke="#365aa3" stroke-opacity="0.25" stroke-width="2"></circle><circle r="177.085" cx="1114.05" cy="532.48" stroke="#365aa3" stroke-opacity="0.25" stroke-width="2"></circle><circle r="138.37" cx="201.87" cy="395.96" stroke="#365aa3" stroke-opacity="0.25" stroke-width="2"></circle><circle r="136.255" cx="542.59" cy="444.85" stroke="#365aa3" stroke-opacity="0.25" stroke-width="2"></circle><circle r="132.78" cx="1114.56" cy="110.77" stroke="#365aa3" stroke-opacity="0.25" stroke-width="2"></circle><circle r="185.22" cx="122.68" cy="300.65" stroke="#365aa3" stroke-opacity="0.25" stroke-width="2"></circle><circle r="138.285" cx="609.35" cy="83.16" stroke="#365aa3" stroke-opacity="0.25" stroke-width="2"></circle><circle r="173.105" cx="360.41" cy="394.7" stroke="#365aa3" stroke-opacity="0.25" stroke-width="2"></circle><circle r="144.19" cx="1387.24" cy="251.98" stroke="#365aa3" stroke-opacity="0.25" stroke-width="2"></circle><circle r="117.545" cx="1429.67" cy="551.01" stroke="#365aa3" stroke-opacity="0.25" stroke-width="2"></circle><circle r="93.445" cx="812" cy="506.74" stroke="#365aa3" stroke-opacity="0.25" stroke-width="2"></circle><circle r="176.095" cx="924.86" cy="410.95" stroke="#365aa3" stroke-opacity="0.25" stroke-width="2"></circle><circle r="110.75" cx="507.31" cy="190.29" stroke="#365aa3" stroke-opacity="0.25" stroke-width="2"></circle><circle r="105.47" cx="75.07" cy="539.38" stroke="#365aa3" stroke-opacity="0.25" stroke-width="2"></circle><circle r="79.77" cx="712.55" cy="14.81" stroke="#365aa3" stroke-opacity="0.25" stroke-width="2"></circle></g><defs><clipPath id="SvgjsClipPath1005"><rect width="1440" height="560" x="0" y="0"></rect></clipPath></defs></svg>